kopru_ayakbilegi
version=1
nRows=12
nColumns=53
inDegrees=yes
endheader
time	sacrum_pitch	sacrum_roll	sacrum_yaw	sacrum_x	sacrum_y	sacrum_z	sacroiliac_flx	hip_flx	hip_add	hip_int	knee_flx	ankle_flx	ankle_add	ankle_int	BFa.activation	BFp.activation	CF.activation	STp.activation	STa.activation	SM.activation	QF.activation	TFL.activation	GMa.activation	GMe.activation	GMi.activation	Pir.activation	GP.activation	GA.activation	AL.activation	AM.activation	AB.activation	Pec.activation	IP.activation	OE.activation	OI.activation	GS.activation	GI.activation	RF.activation	VL.activation	VI.activation	VM.activation	MG.activation	LG.activation	Pla.activation	Sol.activation	TA.activation	EDL.activation	TP.activation	FDL.activation	FHL.activation	Per.activation	Pop.activation
0.450600	20.633716	0.000000	0.000000	0.000000	0.050000	0.000000	3.700000	39.941851	-10.000000	0.000000	-125.456028	3.777762	-5.000000	0.000000	0.000000	0.000000	0.000000	0.000000	0.000000	0.000000	0.000000	0.000000	0.000000	0.000000	0.000000	0.000000	0.000000	0.000000	0.000000	0.000000	0.000000	0.000000	0.000000	0.000000	0.000000	0.000000	0.000000	0.000000	0.000000	0.000000	0.000000	0.009190	0.009168	0.010416	0.022665	0.406096	0.655029	0.010552	0.010527	0.010527	0.558526	0.000000
0.455550	20.633716	0.000000	0.000000	0.000000	0.050000	0.000000	3.700000	39.941851	-10.000000	0.000000	-125.456028	4.867529	-5.000000	0.000000	0.000000	0.000000	0.000000	0.000000	0.000000	0.000000	0.000000	0.000000	0.000000	0.000000	0.000000	0.000000	0.000000	0.000000	0.000000	0.000000	0.000000	0.000000	0.000000	0.000000	0.000000	0.000000	0.000000	0.000000	0.000000	0.000000	0.000000	0.008322	0.008303	0.009432	0.020525	0.367763	0.593199	0.009556	0.009533	0.009533	0.505806	0.000000
0.460500	20.633716	0.000000	0.000000	0.000000	0.050000	0.000000	3.700000	39.941851	-10.000000	0.000000	-125.456028	6.056982	-5.000000	0.000000	0.000000	0.000000	0.000000	0.000000	0.000000	0.000000	0.000000	0.000000	0.000000	0.000000	0.000000	0.000000	0.000000	0.000000	0.000000	0.000000	0.000000	0.000000	0.000000	0.000000	0.000000	0.000000	0.000000	0.000000	0.000000	0.000000	0.000000	0.007537	0.007519	0.008542	0.018588	0.333049	0.537206	0.008654	0.008633	0.008633	0.458062	0.000000
0.465450	20.633716	0.000000	0.000000	0.000000	0.050000	0.000000	3.700000	39.941851	-10.000000	0.000000	-125.456028	7.304639	-5.000000	0.000000	0.000000	0.000000	0.000000	0.000000	0.000000	0.000000	0.000000	0.000000	0.000000	0.000000	0.000000	0.000000	0.000000	0.000000	0.000000	0.000000	0.000000	0.000000	0.000000	0.000000	0.000000	0.000000	0.000000	0.000000	0.000000	0.000000	0.000000	0.006825	0.006809	0.007736	0.016833	0.301612	0.486498	0.007837	0.007818	0.007818	0.414824	0.000000
0.470400	20.633716	0.000000	0.000000	0.000000	0.050000	0.000000	3.700000	39.941851	-10.000000	0.000000	-125.456028	8.591130	-5.000000	0.000000	0.000000	0.000000	0.000000	0.000000	0.000000	0.000000	0.000000	0.000000	0.000000	0.000000	0.000000	0.000000	0.000000	0.000000	0.000000	0.000000	0.000000	0.000000	0.000000	0.000000	0.000000	0.000000	0.000000	0.000000	0.000000	0.000000	0.000000	0.006181	0.006167	0.007006	0.015244	0.273142	0.440576	0.007097	0.007080	0.007080	0.697198	0.000000
0.475350	20.633716	0.000000	0.000000	0.000000	0.050000	0.000000	3.700000	39.941851	-10.000000	0.000000	-125.456028	9.951897	-5.000000	0.000000	0.000000	0.000000	0.000000	0.000000	0.000000	0.000000	0.000000	0.000000	0.000000	0.000000	0.000000	0.000000	0.000000	0.000000	0.000000	0.000000	0.000000	0.000000	0.000000	0.000000	0.000000	0.000000	0.000000	0.000000	0.000000	0.000000	0.000000	0.005598	0.005584	0.006344	0.013805	0.247360	0.398989	0.006427	0.006412	0.006412	0.631388	0.000000
0.480300	20.633716	0.000000	0.000000	0.000000	0.050000	0.000000	3.700000	39.941851	-10.000000	0.000000	-125.456028	11.384880	-5.000000	0.000000	0.000000	0.000000	0.000000	0.000000	0.000000	0.000000	0.000000	0.000000	0.000000	0.000000	0.000000	0.000000	0.000000	0.000000	0.000000	0.000000	0.000000	0.000000	0.000000	0.000000	0.000000	0.000000	0.000000	0.000000	0.000000	0.000000	0.000000	0.005069	0.005057	0.005745	0.012502	0.224011	0.361328	0.005821	0.005807	0.005807	0.571790	0.000000
0.485250	20.633716	0.000000	0.000000	0.000000	0.050000	0.000000	3.700000	39.941851	-10.000000	0.000000	-125.456028	12.867387	-5.000000	0.000000	0.000000	0.000000	0.000000	0.000000	0.000000	0.000000	0.000000	0.000000	0.000000	0.000000	0.000000	0.000000	0.000000	0.000000	0.000000	0.000000	0.000000	0.000000	0.000000	0.000000	0.000000	0.000000	0.000000	0.000000	0.000000	0.000000	0.000000	0.004591	0.004580	0.005203	0.011322	0.202866	0.327222	0.005271	0.005259	0.005259	0.517817	0.000000
0.490200	20.633716	0.000000	0.000000	0.000000	0.050000	0.000000	3.700000	39.941851	-10.000000	0.000000	-125.456028	14.413382	-5.000000	0.000000	0.000000	0.000000	0.000000	0.000000	0.000000	0.000000	0.000000	0.000000	0.000000	0.000000	0.000000	0.000000	0.000000	0.000000	0.000000	0.000000	0.000000	0.000000	0.000000	0.000000	0.000000	0.000000	0.000000	0.000000	0.000000	0.000000	0.000000	0.004157	0.004148	0.004712	0.010254	0.374983	0.605547	0.004774	0.004762	0.004762	0.468940	0.000000
0.495150	20.633716	0.000000	0.000000	0.000000	0.050000	0.000000	3.700000	39.941851	-10.000000	0.000000	-125.456028	16.085558	-5.000000	0.000000	0.000000	0.000000	0.000000	0.000000	0.000000	0.000000	0.000000	0.000000	0.000000	0.000000	0.000000	0.000000	0.000000	0.000000	0.000000	0.000000	0.000000	0.000000	0.000000	0.000000	0.000000	0.000000	0.000000	0.000000	0.000000	0.000000	0.000000	0.003765	0.003756	0.004267	0.009286	0.339588	0.548389	0.004323	0.004313	0.004313	0.424675	0.000000
0.500100	20.633716	0.000000	0.000000	0.000000	0.050000	0.000000	3.700000	39.941851	-10.000000	0.000000	-125.456028	17.866297	-5.000000	0.000000	0.000000	0.000000	0.000000	0.000000	0.000000	0.000000	0.000000	0.000000	0.000000	0.000000	0.000000	0.000000	0.000000	0.000000	0.000000	0.000000	0.000000	0.000000	0.000000	0.000000	0.000000	0.000000	0.000000	0.000000	0.000000	0.000000	0.000000	0.003410	0.003402	0.003864	0.008409	0.307533	0.496625	0.003915	0.003906	0.003906	0.687367	0.000000
0.505050	20.633716	0.000000	0.000000	0.000000	0.050000	0.000000	3.700000	39.941851	-10.000000	0.000000	-125.456028	19.771138	-5.000000	0.000000	0.000000	0.000000	0.000000	0.000000	0.000000	0.000000	0.000000	0.000000	0.000000	0.000000	0.000000	0.000000	0.000000	0.000000	0.000000	0.000000	0.000000	0.000000	0.000000	0.000000	0.000000	0.000000	0.000000	0.000000	0.000000	0.000000	0.000000	0.003088	0.003081	0.003500	0.007615	0.278505	0.449748	0.003545	0.003537	0.003537	0.622485	0.000000
